<svg xmlns="http://www.w3.org/2000/svg" viewBox="0 0 58 58"><style>.a{fill:#424A60;}.b{fill:#FFF;}</style><circle cx="29" cy="29" r="29" fill="#4B6DAA"/><path d="M33 44c-0.2 0-0.4-0.1-0.6-0.2l-15-11c-0.4-0.3-0.5-1-0.2-1.4 0.3-0.4 1-0.5 1.4-0.2l15 11c0.4 0.3 0.5 1 0.2 1.4C33.6 43.9 33.3 44 33 44z" class="a"/><path d="M18 25c-0.3 0-0.6-0.1-0.8-0.4 -0.3-0.4-0.2-1.1 0.2-1.4l15-11c0.4-0.3 1.1-0.2 1.4 0.2 0.3 0.4 0.2 1.1-0.2 1.4l-15 11C18.4 24.9 18.2 25 18 25z" class="a"/><circle cx="15" cy="28" r="5" fill="#A4E869"/><circle cx="38" cy="13" r="5" class="b"/><circle cx="38" cy="43" r="5" class="b"/></svg>