<svg xmlns="http://www.w3.org/2000/svg" viewBox="0 0 512 512"><style>.a{fill:#C20035;}.b{fill:#FF0F47;}</style><polygon points="305.6 395 305.6 449.5 256 471.3 206.4 449.5 206.4 395 " fill="#88ACB5"/><rect x="206.4" y="449.5" width="99.1" height="53.8" fill="#A7CBCF"/><path d="M492.6 43.3h-32.7v336.5l43.9-21.8V54.5C503.8 48.4 498.8 43.3 492.6 43.3z" fill="#940044"/><path d="M459.9 43.3H19.4c-6.2 0-11.3 5.1-11.3 11.3v303.4l32.7 16.2v5.6h430.3V54.5C471.1 48.4 466.1 43.3 459.9 43.3z" class="a"/><polygon points="409.4 8.2 409.4 358.5 365.9 358.5 387.7 8.2 " fill="#B7D9DD"/><rect x="102.6" y="8.2" width="285.1" height="361.2" fill="#C7E7EB"/><rect x="146.1" y="51.7" width="219.7" height="57.5" class="b"/><rect x="146.1" y="283.6" width="129.3" height="85.8" fill="#2F5E88"/><path d="M471.1 358l-11.3 66.5h32.7c6.2 0 11.3-5.1 11.3-11.3v-55.2H471.1z" fill="#367596"/><path d="M8.2 358v55.2c0 6.2 5.1 11.3 11.3 11.3h440.5c6.2 0 11.3-5.1 11.3-11.3v-55.2H8.2z" fill="#5195AF"/><polygon points="396.3 155.8 409.4 166.7 422.6 155.8 409.4 123.1 " fill="#111449"/><polygon points="409.4 228.1 438.5 195.4 422.6 155.8 396.3 155.8 380.4 195.4 " fill="#FFF"/><polygon points="380.4 445.1 380.4 195.4 416.7 195.4 427.6 466.9 " fill="#FFCD60"/><polygon points="416.7 461.4 438.5 445.1 438.5 195.4 416.7 195.4 " fill="#F3A933"/><path d="M416.7 446.2h21.8v29.4c0 16-13 29-29 29L416.7 446.2z" class="a"/><path d="M380.4 475.6c0 16 13 29 29 29 4 0 7.2-13 7.2-29v-29.4h-36.3V475.6z" class="b"/><path d="M492.6 35.7h-74.9V8.2c0-4.5-3.7-8.2-8.2-8.2H102.6c-4.5 0-8.2 3.7-8.2 8.2v27.5H19.4c-10.7 0-19.4 8.7-19.4 19.4v358.6c0 10.7 8.7 19.4 19.4 19.4h178.4v62.5h-77.1c-4.5 0-8.2 3.7-8.2 8.2s3.7 8.2 8.2 8.2h234.2c4.5 0 8.2-3.7 8.2-8.2s-3.7-8.2-8.2-8.2h-40.9v-62.5h33.6c4.5 0 8.2-3.7 8.2-8.2 0-4.5-3.7-8.2-8.2-8.2H19.4c-1.7 0-3.1-1.4-3.1-3.1V55.1c0-1.7 1.4-3.1 3.1-3.1h74.9v298.3H42c-4.5 0-8.2 3.7-8.2 8.2 0 4.5 3.7 8.2 8.2 8.2h305.8c4.5 0 8.2-3.7 8.2-8.2 0-4.5-3.7-8.2-8.2-8.2h-64.1v-66.8c0-4.5-3.7-8.2-8.2-8.2H146.1c-4.5 0-8.2 3.7-8.2 8.2v66.8h-27.2V43.8c0 0 0 0 0 0 0 0 0 0 0 0V16.3H401.3v74.4c0 4.5 3.7 8.2 8.2 8.2 4.5 0 8.2-3.7 8.2-8.2V52h74.9c1.7 0 3.1 1.4 3.1 3.1V413.7c0 1.7-1.4 3.1-3.1 3.1h-21.4c-4.5 0-8.2 3.7-8.2 8.2 0 4.5 3.7 8.2 8.2 8.2h21.4c10.7 0 19.4-8.7 19.4-19.4V55.1C512 44.4 503.3 35.7 492.6 35.7zM297.8 495.7H214.2v-62.5h83.6V495.7zM154.3 291.7H267.3v58.6H154.3V291.7z"/><path d="M446.5 194.5c0-0.1 0-0.2-0.1-0.4 0-0.2-0.1-0.3-0.1-0.5 0-0.1 0-0.2-0.1-0.3 -0.1-0.2-0.1-0.3-0.2-0.5 0-0.1 0-0.1-0.1-0.2l0-0.1c0 0 0 0 0-0.1l-29-72.1c-1.2-3.1-4.2-5.1-7.6-5.1 -3.3 0-6.3 2-7.6 5.1l-29 72.1c0 0 0 0 0 0l0 0.1c0 0.1 0 0.1-0.1 0.2 -0.1 0.2-0.1 0.3-0.2 0.5 0 0.1 0 0.2-0.1 0.3 0 0.2-0.1 0.3-0.1 0.5 0 0.1 0 0.2-0.1 0.4 0 0.1 0 0.3-0.1 0.4 0 0.3 0 0.5 0 0.8v279.1c0 20.5 16.7 37.2 37.2 37.2 20.5 0 37.2-16.7 37.2-37.2V195.7c0-0.3 0-0.5 0-0.8C446.6 194.8 446.6 194.7 446.5 194.5zM388.6 203.9h41.7v233.3h-41.7V203.9zM409.4 145.4l16.9 42.2h-33.9L409.4 145.4zM409.4 495.7c-11.5 0-20.9-9.4-20.9-20.9v-21.2h41.7v21.2C430.3 486.3 420.9 495.7 409.4 495.7z"/><path d="M146.1 117.4h219.7c4.5 0 8.2-3.7 8.2-8.2V51.7c0-4.5-3.7-8.2-8.2-8.2H146.1c-4.5 0-8.2 3.7-8.2 8.2v57.5C138 113.8 141.6 117.4 146.1 117.4zM154.3 59.9h203.4v41.2H154.3V59.9z"/><path d="M365.9 133.8H146.1c-4.5 0-8.2 3.7-8.2 8.2 0 4.5 3.7 8.2 8.2 8.2h219.7c4.5 0 8.2-3.7 8.2-8.2C374 137.4 370.4 133.8 365.9 133.8z"/><path d="M275.4 177.3H146.1c-4.5 0-8.2 3.7-8.2 8.2s3.7 8.2 8.2 8.2H275.4c4.5 0 8.2-3.7 8.2-8.2S279.9 177.3 275.4 177.3z"/><path d="M349.3 177.3h-41.2c-4.5 0-8.2 3.7-8.2 8.2s3.7 8.2 8.2 8.2h41.2c4.5 0 8.2-3.7 8.2-8.2S353.8 177.3 349.3 177.3z"/><path d="M275.4 210H146.1c-4.5 0-8.2 3.7-8.2 8.2s3.7 8.2 8.2 8.2H275.4c4.5 0 8.2-3.7 8.2-8.2S279.9 210 275.4 210z"/><path d="M347.7 210h-39.6c-4.5 0-8.2 3.7-8.2 8.2s3.7 8.2 8.2 8.2h39.6c4.5 0 8.2-3.7 8.2-8.2S352.3 210 347.7 210z"/><path d="M275.4 242.7H146.1c-4.5 0-8.2 3.7-8.2 8.2s3.7 8.2 8.2 8.2H275.4c4.5 0 8.2-3.7 8.2-8.2S279.9 242.7 275.4 242.7z"/><path d="M347.7 242.7h-39.6c-4.5 0-8.2 3.7-8.2 8.2s3.7 8.2 8.2 8.2h39.6c4.5 0 8.2-3.7 8.2-8.2S352.3 242.7 347.7 242.7z"/></svg>