<svg xmlns:svg="http://www.w3.org/2000/svg" xmlns="http://www.w3.org/2000/svg" width="182" height="116" viewBox="0 0 644.8 410.9" version="1.1"><g transform="translate(-37.579964,-135.49927)"><g transform="matrix(1.1421528,0,0,-1.1421528,265.93398,460.73095)"><path d="m0 0c-19.9-2.5-36.2-0.6-36.2-0.6l0 122.1 38 0c0 0 42.4-11.8 42.4-56.7C44.3 23.7 23.1 7.5 0 0M105.1 85.7C88.4 173.6 0.6 184.5 0.6 184.5l-393.3 0c-13 0-14.6-17.1-14.6-17.1 0 0-1.8-157.4-0.5-254.1 3.5-52.1 55.6-57.4 55.6-57.4 0 0 177.7 0.5 257.2 1 52.4 9.2 57.7 55.2 57.2 80.3 93.5-5.2 159.5 60.8 142.9 148.6" transform="matrix(1.0944245,0,0,1.0944245,246.85536,82.861446)" fill="#fff"/><path d="m0 0c4.4-2.2 7.3 0.5 7.3 0.5 0 0 65 59.4 94.3 93.6 26.1 30.6 27.8 82.1-17 101.4-44.8 19.3-81.6-22.7-81.6-22.7-31.9 35.1-80.3 33.3-102.6 9.6-22.4-23.8-14.5-64.6 2.1-87.3 15.7-21.3 84.5-82.6 94.9-93 0 0 0.8-0.8 2.5-2.1" fill="#ff5f5f"/></g></g></svg>