<svg xmlns="http://www.w3.org/2000/svg" viewBox="0 0 512 512"><path d="M428.9 132.3c0.9-7 1.3-14.2 1.3-21.5C430.2 49.6 380.6 0 319.4 0H134.3c-11.6 0-21.6 8.4-23.5 19.9l-68.2 405.5c-2.4 14.6 8.8 27.8 23.5 27.8h67.7c11.6 0 21.8-8.4 23.7-19.9 0 0 0.1-0.7 0.3-1.9h0l-9.4 56.1C146.2 500.3 156.1 512 169.1 512h59.2c10.3 0 19-7.4 20.7-17.5l16.8-100c2.9-17.2 17.8-29.9 35.3-29.9h15.6c84.5 0 153.1-68.5 153.1-153.1C469.8 178.8 453.6 149.9 428.9 132.3z" fill="#002987"/><path d="M428.9 132.3c-10.6 86.2-84 152.9-173.1 152.9h-51.7c-11.7 0-21.7 7.8-24.9 18.7l-30.9 183.5C146.2 500.3 156.1 512 169.1 512h59.2c10.3 0 19-7.4 20.7-17.5l16.8-100c2.9-17.2 17.8-29.9 35.3-29.9h15.6c84.5 0 153.1-68.5 153.1-153.1l0 0C469.8 178.8 453.6 149.9 428.9 132.3z" fill="#0085CC"/><path d="M204.1 285.2h51.7c89 0 162.5-66.7 173.1-152.9 -15.9-11.3-35.3-18-56.3-18h-134.8c-15.4 0-28.5 11.1-31 26.2l-27.5 163.4C182.4 293 192.5 285.2 204.1 285.2z" fill="#00186A"/></svg>