<?xml version="1.0" encoding="UTF-8" standalone="no"?>
<!DOCTYPE svg PUBLIC "-//W3C//DTD SVG 1.1//EN" "http://www.w3.org/Graphics/SVG/1.1/DTD/svg11.dtd">
<svg width="100%" height="100%" viewBox="0 0 238 238" version="1.1" xmlns="http://www.w3.org/2000/svg" xmlns:xlink="http://www.w3.org/1999/xlink" xml:space="preserve" xmlns:serif="http://www.serif.com/" style="fill-rule:evenodd;clip-rule:evenodd;">
    <g transform="matrix(1,0,0,1,-9,-9)">
        <g>
            <path d="M235.04,128.31C235.04,69.765 186.865,21.59 128.32,21.59C69.775,21.59 21.6,69.765 21.6,128.31C21.6,186.855 69.775,235.03 128.32,235.03C186.865,235.03 235.04,186.855 235.04,128.31" style="fill:none;fill-rule:nonzero;stroke:rgb(24,101,73);stroke-width:2px;"/>
            <path d="M85.13,77.95C85.405,78 85.607,78.241 85.607,78.521C85.607,78.647 85.566,78.769 85.49,78.87C82.68,82.53 80.84,86.95 80.36,91.53C80.16,93.37 79.793,95.177 79.26,96.95C78.49,99.5 78.25,102.71 78.66,105.25C80.15,114.53 81.83,123.05 82.27,132.99C82.357,134.797 83.413,138.483 85.44,144.05C87.13,148.7 89.59,150.93 92.85,154.17C93.13,154.449 93.248,154.854 93.16,155.24C92.913,156.287 92.56,157.32 92.1,158.34C89.89,163.23 88.17,168.35 87.01,173.52C86.05,177.807 84.76,181.78 83.14,185.44C81.15,189.93 80.68,194.72 79.99,199.51C79.869,200.368 80.26,201.222 80.99,201.69C85.05,204.29 89.223,206.513 93.51,208.36C93.823,208.493 94.083,208.423 94.29,208.15C98.87,201.93 101.507,195.287 102.2,188.22C102.248,187.72 102.673,187.335 103.175,187.335C103.275,187.335 103.375,187.35 103.47,187.38C104.363,187.66 104.743,188.27 104.61,189.21C104.25,191.79 103.993,194.363 103.84,196.93C103.56,201.73 101.32,205.93 99.78,210.26C99.64,210.66 99.773,210.923 100.18,211.05C104.487,212.357 108.95,213.43 113.57,214.27C114.843,214.503 116.127,214.58 117.42,214.5C118.18,214.447 118.57,214.04 118.59,213.28C118.717,207.187 119.543,201.237 121.07,195.43C121.157,195.11 121.317,194.847 121.55,194.64C121.743,194.473 121.96,194.39 122.2,194.39C122.547,194.397 122.78,194.563 122.9,194.89L124.58,199.17C124.645,199.339 124.659,199.527 124.62,199.71C123.52,205.25 124.32,209.18 124.75,214.22C124.783,214.6 124.99,214.79 125.37,214.79C130.043,214.797 134.483,214.74 138.69,214.62C143.09,214.49 147.46,213.22 151.75,212.25C152.151,212.157 152.425,211.78 152.39,211.37C152.18,208.93 152.28,206.85 153.52,204.65C155.193,201.683 155.543,198.697 154.57,195.69C154.558,195.652 154.546,195.614 154.536,195.576C154.222,194.405 154.932,193.182 156.109,192.867C156.145,192.857 156.183,192.848 156.22,192.84C158.127,192.433 160.063,192.28 162.03,192.38C162.397,192.393 162.643,192.573 162.77,192.92C163.67,195.407 164.19,197.81 164.33,200.13C164.356,200.453 164.268,200.778 164.08,201.05L163.07,202.51C162.85,202.823 162.803,203.163 162.93,203.53C163.337,204.717 163.203,205.9 162.53,207.08C161.837,208.313 162.13,208.63 163.41,208.03C186.037,197.403 201.693,180.273 210.38,156.64C210.507,156.307 210.433,156.023 210.16,155.79C206.1,152.223 202.003,149.727 197.87,148.3C192.69,146.51 187.68,144.08 182.44,142.91C178.96,142.137 175.417,140.963 171.81,139.39C168.93,138.14 165.39,138 162.32,138.39C159.447,138.763 156.543,139.003 153.61,139.11C152.71,139.143 152.443,138.75 152.81,137.93C154.38,134.39 154.6,130.86 155.86,127.27C157.393,122.91 158.233,119.16 158.38,116.02C158.54,112.613 158.607,109.023 158.58,105.25C158.55,101.1 156.98,97.51 156.66,93.55C156.24,88.45 155.113,83.49 153.28,78.67C152.15,75.7 152.36,72.75 151.59,69.74C151.463,69.273 151.597,68.897 151.99,68.61C152.87,67.983 153.897,67.607 155.07,67.48C155.463,67.44 155.797,67.563 156.07,67.85C157.243,69.063 158.443,70.213 159.67,71.3C161.36,72.8 163.19,72.85 164.19,75.23C164.99,77.117 165.783,78.937 166.57,80.69C167.076,81.819 167.936,82.753 169.02,83.35C170.94,84.403 172.893,85.413 174.88,86.38C178.273,88.027 181.163,87.377 183.55,84.43C185.72,81.75 185.54,75.69 183.98,72.77C181.873,68.817 180.293,64.45 179.24,59.67C179.04,58.75 178.13,57.47 177.35,56.92C168.143,50.433 157.813,45.937 146.36,43.43C141.34,42.33 138.08,46.92 135.06,50.11C134.633,50.562 133.935,50.642 133.41,50.3C124.583,44.633 115.773,44.98 106.98,51.34C106.427,51.747 105.843,51.793 105.23,51.48C99.103,48.38 93.247,48.327 87.66,51.32C75.547,57.807 65.523,66.48 57.59,77.34C56.283,79.133 55.107,81.017 54.06,82.99C53.11,84.77 53.51,86.4 54.45,88.03C58.12,94.42 63.57,93.04 68.3,89.01C72.64,85.317 77.877,81.697 84.01,78.15C84.357,77.95 84.73,77.883 85.13,77.95" style="fill:none;fill-rule:nonzero;stroke:rgb(55,107,79);stroke-width:2px;"/>
            <path d="M128.73,95.09L129.59,94.45C130.009,94.134 130.189,93.589 130.04,93.09C129.733,92.083 129.147,91.307 128.28,90.76C127.693,90.393 127.16,90.46 126.68,90.96C125.8,91.887 124.753,92.603 123.54,93.11C123.16,93.263 122.863,93.517 122.65,93.87C119.523,98.983 118.35,104.56 119.13,110.6C119.133,110.626 119.137,110.651 119.143,110.676C119.251,111.203 119.777,111.546 120.309,111.437C120.333,111.432 120.357,111.427 120.38,111.42L126.98,109.49C127.273,109.41 127.49,109.233 127.63,108.96C129.75,104.79 131.34,100.83 128.48,96.54C128.107,95.98 128.19,95.497 128.73,95.09" style="fill:none;fill-rule:nonzero;stroke:rgb(56,112,95);stroke-width:2px;"/>
            <path d="M99.71,95.72L99.1,94.16C99.011,93.936 98.793,93.788 98.552,93.788C98.433,93.788 98.318,93.823 98.22,93.89C96.34,95.2 94.36,95.74 93.02,97.79C91.36,100.31 90.28,103.1 92.12,105.9C93.453,107.92 94.683,109.92 95.81,111.9C96.037,112.293 96.373,112.453 96.82,112.38C100.57,111.76 102.25,107.51 102.37,104.17C102.457,101.723 102.63,99.263 102.89,96.79C102.893,96.765 102.894,96.741 102.894,96.716C102.894,96.315 102.564,95.986 102.164,95.986C102.116,95.986 102.067,95.99 102.02,96L100.71,96.26C100.291,96.348 99.866,96.118 99.71,95.72" style="fill:none;fill-rule:nonzero;stroke:rgb(56,112,95);stroke-width:2px;"/>
            <path d="M104,136.48C106.06,137.613 107.16,139.053 107.3,140.8C107.329,141.158 107.57,141.465 107.91,141.58C109.47,142.12 110.39,141.42 110.67,139.48C110.735,138.998 110.651,138.507 110.43,138.07C109.703,136.637 109.39,135.103 109.49,133.47C109.51,133.09 109.387,132.763 109.12,132.49C107.87,131.24 105.68,129.75 106.96,127.73C108.38,125.48 109.78,123.72 112.29,122.77C112.304,122.765 112.317,122.759 112.33,122.753C112.577,122.634 112.681,122.329 112.559,122.077C112.553,122.064 112.547,122.052 112.54,122.04C111.32,120 109.62,117.58 106.88,117.58C104.36,117.587 102.107,118.08 100.12,119.06C99.8,119.22 99.657,119.477 99.69,119.83C99.84,121.43 100.28,122.92 101.25,124.22C104.71,128.86 100.93,131.89 98.33,135.22C97.37,136.46 97.37,137.9 97.55,139.37C97.657,140.177 98.123,140.487 98.95,140.3C99.377,140.207 99.68,139.963 99.86,139.57C100.5,138.17 101.677,137.127 103.39,136.44C103.597,136.353 103.8,136.367 104,136.48" style="fill:none;fill-rule:nonzero;stroke:rgb(56,112,95);stroke-width:2px;"/>
        </g>
        <path d="M247.39,128.32C247.39,193.645 193.635,247.4 128.31,247.4C62.985,247.4 9.23,193.645 9.23,128.32C9.23,62.995 62.985,9.24 128.31,9.24C193.635,9.24 247.39,62.995 247.39,128.32ZM235.04,128.31C235.04,69.765 186.865,21.59 128.32,21.59C69.775,21.59 21.6,69.765 21.6,128.31C21.6,186.855 69.775,235.03 128.32,235.03C186.865,235.03 235.04,186.855 235.04,128.31Z" style="fill:rgb(48,201,145);fill-rule:nonzero;"/>
        <path d="M235.04,128.31C235.04,186.855 186.865,235.03 128.32,235.03C69.775,235.03 21.6,186.855 21.6,128.31C21.6,69.765 69.775,21.59 128.32,21.59C186.865,21.59 235.04,69.765 235.04,128.31ZM85.13,77.95C85.405,78 85.607,78.241 85.607,78.521C85.607,78.647 85.566,78.769 85.49,78.87C82.68,82.53 80.84,86.95 80.36,91.53C80.16,93.37 79.793,95.177 79.26,96.95C78.49,99.5 78.25,102.71 78.66,105.25C80.15,114.53 81.83,123.05 82.27,132.99C82.357,134.797 83.413,138.483 85.44,144.05C87.13,148.7 89.59,150.93 92.85,154.17C93.13,154.449 93.248,154.854 93.16,155.24C92.913,156.287 92.56,157.32 92.1,158.34C89.89,163.23 88.17,168.35 87.01,173.52C86.05,177.807 84.76,181.78 83.14,185.44C81.15,189.93 80.68,194.72 79.99,199.51C79.869,200.368 80.26,201.222 80.99,201.69C85.05,204.29 89.223,206.513 93.51,208.36C93.823,208.493 94.083,208.423 94.29,208.15C98.87,201.93 101.507,195.287 102.2,188.22C102.248,187.72 102.673,187.335 103.175,187.335C103.275,187.335 103.375,187.35 103.47,187.38C104.363,187.66 104.743,188.27 104.61,189.21C104.25,191.79 103.993,194.363 103.84,196.93C103.56,201.73 101.32,205.93 99.78,210.26C99.64,210.66 99.773,210.923 100.18,211.05C104.487,212.357 108.95,213.43 113.57,214.27C114.843,214.503 116.127,214.58 117.42,214.5C118.18,214.447 118.57,214.04 118.59,213.28C118.717,207.187 119.543,201.237 121.07,195.43C121.157,195.11 121.317,194.847 121.55,194.64C121.743,194.473 121.96,194.39 122.2,194.39C122.547,194.397 122.78,194.563 122.9,194.89L124.58,199.17C124.645,199.339 124.659,199.527 124.62,199.71C123.52,205.25 124.32,209.18 124.75,214.22C124.783,214.6 124.99,214.79 125.37,214.79C130.043,214.797 134.483,214.74 138.69,214.62C143.09,214.49 147.46,213.22 151.75,212.25C152.151,212.157 152.425,211.78 152.39,211.37C152.18,208.93 152.28,206.85 153.52,204.65C155.193,201.683 155.543,198.697 154.57,195.69C154.558,195.652 154.546,195.614 154.536,195.576C154.222,194.405 154.932,193.182 156.109,192.867C156.145,192.857 156.183,192.848 156.22,192.84C158.127,192.433 160.063,192.28 162.03,192.38C162.397,192.393 162.643,192.573 162.77,192.92C163.67,195.407 164.19,197.81 164.33,200.13C164.356,200.453 164.268,200.778 164.08,201.05L163.07,202.51C162.85,202.823 162.803,203.163 162.93,203.53C163.337,204.717 163.203,205.9 162.53,207.08C161.837,208.313 162.13,208.63 163.41,208.03C186.037,197.403 201.693,180.273 210.38,156.64C210.507,156.307 210.433,156.023 210.16,155.79C206.1,152.223 202.003,149.727 197.87,148.3C192.69,146.51 187.68,144.08 182.44,142.91C178.96,142.137 175.417,140.963 171.81,139.39C168.93,138.14 165.39,138 162.32,138.39C159.447,138.763 156.543,139.003 153.61,139.11C152.71,139.143 152.443,138.75 152.81,137.93C154.38,134.39 154.6,130.86 155.86,127.27C157.393,122.91 158.233,119.16 158.38,116.02C158.54,112.613 158.607,109.023 158.58,105.25C158.55,101.1 156.98,97.51 156.66,93.55C156.24,88.45 155.113,83.49 153.28,78.67C152.15,75.7 152.36,72.75 151.59,69.74C151.463,69.273 151.597,68.897 151.99,68.61C152.87,67.983 153.897,67.607 155.07,67.48C155.463,67.44 155.797,67.563 156.07,67.85C157.243,69.063 158.443,70.213 159.67,71.3C161.36,72.8 163.19,72.85 164.19,75.23C164.99,77.117 165.783,78.937 166.57,80.69C167.076,81.819 167.936,82.753 169.02,83.35C170.94,84.403 172.893,85.413 174.88,86.38C178.273,88.027 181.163,87.377 183.55,84.43C185.72,81.75 185.54,75.69 183.98,72.77C181.873,68.817 180.293,64.45 179.24,59.67C179.04,58.75 178.13,57.47 177.35,56.92C168.143,50.433 157.813,45.937 146.36,43.43C141.34,42.33 138.08,46.92 135.06,50.11C134.633,50.562 133.935,50.642 133.41,50.3C124.583,44.633 115.773,44.98 106.98,51.34C106.427,51.747 105.843,51.793 105.23,51.48C99.103,48.38 93.247,48.327 87.66,51.32C75.547,57.807 65.523,66.48 57.59,77.34C56.283,79.133 55.107,81.017 54.06,82.99C53.11,84.77 53.51,86.4 54.45,88.03C58.12,94.42 63.57,93.04 68.3,89.01C72.64,85.317 77.877,81.697 84.01,78.15C84.357,77.95 84.73,77.883 85.13,77.95Z" style="fill-rule:nonzero;"/>
        <path d="M85.13,77.95C84.73,77.883 84.357,77.95 84.01,78.15C77.877,81.697 72.64,85.317 68.3,89.01C63.57,93.04 58.12,94.42 54.45,88.03C53.51,86.4 53.11,84.77 54.06,82.99C55.107,81.017 56.283,79.133 57.59,77.34C65.523,66.48 75.547,57.807 87.66,51.32C93.247,48.327 99.103,48.38 105.23,51.48C105.843,51.793 106.427,51.747 106.98,51.34C115.773,44.98 124.583,44.633 133.41,50.3C133.935,50.642 134.633,50.562 135.06,50.11C138.08,46.92 141.34,42.33 146.36,43.43C157.813,45.937 168.143,50.433 177.35,56.92C178.13,57.47 179.04,58.75 179.24,59.67C180.293,64.45 181.873,68.817 183.98,72.77C185.54,75.69 185.72,81.75 183.55,84.43C181.163,87.377 178.273,88.027 174.88,86.38C172.893,85.413 170.94,84.403 169.02,83.35C167.936,82.753 167.076,81.819 166.57,80.69C165.783,78.937 164.99,77.117 164.19,75.23C163.19,72.85 161.36,72.8 159.67,71.3C158.443,70.213 157.243,69.063 156.07,67.85C155.797,67.563 155.463,67.44 155.07,67.48C153.897,67.607 152.87,67.983 151.99,68.61C151.597,68.897 151.463,69.273 151.59,69.74C152.36,72.75 152.15,75.7 153.28,78.67C155.113,83.49 156.24,88.45 156.66,93.55C156.98,97.51 158.55,101.1 158.58,105.25C158.607,109.023 158.54,112.613 158.38,116.02C158.233,119.16 157.393,122.91 155.86,127.27C154.6,130.86 154.38,134.39 152.81,137.93C152.443,138.75 152.71,139.143 153.61,139.11C156.543,139.003 159.447,138.763 162.32,138.39C165.39,138 168.93,138.14 171.81,139.39C175.417,140.963 178.96,142.137 182.44,142.91C187.68,144.08 192.69,146.51 197.87,148.3C202.003,149.727 206.1,152.223 210.16,155.79C210.433,156.023 210.507,156.307 210.38,156.64C201.693,180.273 186.037,197.403 163.41,208.03C162.13,208.63 161.837,208.313 162.53,207.08C163.203,205.9 163.337,204.717 162.93,203.53C162.803,203.163 162.85,202.823 163.07,202.51L164.08,201.05C164.268,200.778 164.356,200.453 164.33,200.13C164.19,197.81 163.67,195.407 162.77,192.92C162.643,192.573 162.397,192.393 162.03,192.38C160.063,192.28 158.127,192.433 156.22,192.84C156.183,192.848 156.145,192.857 156.109,192.867C154.932,193.182 154.222,194.405 154.536,195.576C154.546,195.614 154.558,195.652 154.57,195.69C155.543,198.697 155.193,201.683 153.52,204.65C152.28,206.85 152.18,208.93 152.39,211.37C152.425,211.78 152.151,212.157 151.75,212.25C147.46,213.22 143.09,214.49 138.69,214.62C134.483,214.74 130.043,214.797 125.37,214.79C124.99,214.79 124.783,214.6 124.75,214.22C124.32,209.18 123.52,205.25 124.62,199.71C124.659,199.527 124.645,199.339 124.58,199.17L122.9,194.89C122.78,194.563 122.547,194.397 122.2,194.39C121.96,194.39 121.743,194.473 121.55,194.64C121.317,194.847 121.157,195.11 121.07,195.43C119.543,201.237 118.717,207.187 118.59,213.28C118.57,214.04 118.18,214.447 117.42,214.5C116.127,214.58 114.843,214.503 113.57,214.27C108.95,213.43 104.487,212.357 100.18,211.05C99.773,210.923 99.64,210.66 99.78,210.26C101.32,205.93 103.56,201.73 103.84,196.93C103.993,194.363 104.25,191.79 104.61,189.21C104.743,188.27 104.363,187.66 103.47,187.38C103.375,187.35 103.275,187.335 103.175,187.335C102.673,187.335 102.248,187.72 102.2,188.22C101.507,195.287 98.87,201.93 94.29,208.15C94.083,208.423 93.823,208.493 93.51,208.36C89.223,206.513 85.05,204.29 80.99,201.69C80.26,201.222 79.869,200.368 79.99,199.51C80.68,194.72 81.15,189.93 83.14,185.44C84.76,181.78 86.05,177.807 87.01,173.52C88.17,168.35 89.89,163.23 92.1,158.34C92.56,157.32 92.913,156.287 93.16,155.24C93.248,154.854 93.13,154.449 92.85,154.17C89.59,150.93 87.13,148.7 85.44,144.05C83.413,138.483 82.357,134.797 82.27,132.99C81.83,123.05 80.15,114.53 78.66,105.25C78.25,102.71 78.49,99.5 79.26,96.95C79.793,95.177 80.16,93.37 80.36,91.53C80.84,86.95 82.68,82.53 85.49,78.87C85.566,78.769 85.607,78.647 85.607,78.521C85.607,78.241 85.405,78 85.13,77.95ZM128.73,95.09L129.59,94.45C130.009,94.134 130.189,93.589 130.04,93.09C129.733,92.083 129.147,91.307 128.28,90.76C127.693,90.393 127.16,90.46 126.68,90.96C125.8,91.887 124.753,92.603 123.54,93.11C123.16,93.263 122.863,93.517 122.65,93.87C119.523,98.983 118.35,104.56 119.13,110.6C119.133,110.626 119.137,110.651 119.143,110.676C119.251,111.203 119.777,111.546 120.309,111.437C120.333,111.432 120.357,111.427 120.38,111.42L126.98,109.49C127.273,109.41 127.49,109.233 127.63,108.96C129.75,104.79 131.34,100.83 128.48,96.54C128.107,95.98 128.19,95.497 128.73,95.09ZM99.71,95.72L99.1,94.16C99.011,93.936 98.793,93.788 98.552,93.788C98.433,93.788 98.318,93.823 98.22,93.89C96.34,95.2 94.36,95.74 93.02,97.79C91.36,100.31 90.28,103.1 92.12,105.9C93.453,107.92 94.683,109.92 95.81,111.9C96.037,112.293 96.373,112.453 96.82,112.38C100.57,111.76 102.25,107.51 102.37,104.17C102.457,101.723 102.63,99.263 102.89,96.79C102.893,96.765 102.894,96.741 102.894,96.716C102.894,96.315 102.564,95.986 102.164,95.986C102.116,95.986 102.067,95.99 102.02,96L100.71,96.26C100.291,96.348 99.866,96.118 99.71,95.72ZM104,136.48C106.06,137.613 107.16,139.053 107.3,140.8C107.329,141.158 107.57,141.465 107.91,141.58C109.47,142.12 110.39,141.42 110.67,139.48C110.735,138.998 110.651,138.507 110.43,138.07C109.703,136.637 109.39,135.103 109.49,133.47C109.51,133.09 109.387,132.763 109.12,132.49C107.87,131.24 105.68,129.75 106.96,127.73C108.38,125.48 109.78,123.72 112.29,122.77C112.304,122.765 112.317,122.759 112.33,122.753C112.577,122.634 112.681,122.329 112.559,122.077C112.553,122.064 112.547,122.052 112.54,122.04C111.32,120 109.62,117.58 106.88,117.58C104.36,117.587 102.107,118.08 100.12,119.06C99.8,119.22 99.657,119.477 99.69,119.83C99.84,121.43 100.28,122.92 101.25,124.22C104.71,128.86 100.93,131.89 98.33,135.22C97.37,136.46 97.37,137.9 97.55,139.37C97.657,140.177 98.123,140.487 98.95,140.3C99.377,140.207 99.68,139.963 99.86,139.57C100.5,138.17 101.677,137.127 103.39,136.44C103.597,136.353 103.8,136.367 104,136.48Z" style="fill:rgb(109,214,158);fill-rule:nonzero;"/>
        <path d="M128.48,96.54C131.34,100.83 129.75,104.79 127.63,108.96C127.49,109.233 127.273,109.41 126.98,109.49L120.38,111.42C120.357,111.427 120.333,111.432 120.309,111.437C119.777,111.546 119.251,111.203 119.143,110.676C119.137,110.651 119.133,110.626 119.13,110.6C118.35,104.56 119.523,98.983 122.65,93.87C122.863,93.517 123.16,93.263 123.54,93.11C124.753,92.603 125.8,91.887 126.68,90.96C127.16,90.46 127.693,90.393 128.28,90.76C129.147,91.307 129.733,92.083 130.04,93.09C130.189,93.589 130.009,94.134 129.59,94.45L128.73,95.09C128.19,95.497 128.107,95.98 128.48,96.54Z" style="fill:rgb(3,10,32);fill-rule:nonzero;"/>
        <path d="M100.71,96.26L102.02,96C102.067,95.99 102.116,95.986 102.164,95.986C102.564,95.986 102.894,96.315 102.894,96.716C102.894,96.741 102.893,96.765 102.89,96.79C102.63,99.263 102.457,101.723 102.37,104.17C102.25,107.51 100.57,111.76 96.82,112.38C96.373,112.453 96.037,112.293 95.81,111.9C94.683,109.92 93.453,107.92 92.12,105.9C90.28,103.1 91.36,100.31 93.02,97.79C94.36,95.74 96.34,95.2 98.22,93.89C98.318,93.823 98.433,93.788 98.552,93.788C98.793,93.788 99.011,93.936 99.1,94.16L99.71,95.72C99.866,96.118 100.291,96.348 100.71,96.26Z" style="fill:rgb(3,10,32);fill-rule:nonzero;"/>
        <path d="M103.39,136.44C101.677,137.127 100.5,138.17 99.86,139.57C99.68,139.963 99.377,140.207 98.95,140.3C98.123,140.487 97.657,140.177 97.55,139.37C97.37,137.9 97.37,136.46 98.33,135.22C100.93,131.89 104.71,128.86 101.25,124.22C100.28,122.92 99.84,121.43 99.69,119.83C99.657,119.477 99.8,119.22 100.12,119.06C102.107,118.08 104.36,117.587 106.88,117.58C109.62,117.58 111.32,120 112.54,122.04C112.547,122.052 112.553,122.064 112.559,122.077C112.681,122.329 112.577,122.634 112.33,122.753C112.317,122.759 112.304,122.765 112.29,122.77C109.78,123.72 108.38,125.48 106.96,127.73C105.68,129.75 107.87,131.24 109.12,132.49C109.387,132.763 109.51,133.09 109.49,133.47C109.39,135.103 109.703,136.637 110.43,138.07C110.651,138.507 110.735,138.998 110.67,139.48C110.39,141.42 109.47,142.12 107.91,141.58C107.57,141.465 107.329,141.158 107.3,140.8C107.16,139.053 106.06,137.613 104,136.48C103.8,136.367 103.597,136.353 103.39,136.44Z" style="fill:rgb(3,10,32);fill-rule:nonzero;"/>
    </g>
</svg>
