<svg xmlns:svg="http://www.w3.org/2000/svg" xmlns="http://www.w3.org/2000/svg" version="1.1" width="850" height="200" id="svg2816" xml:space="preserve"><title id="title2901">Flattr-Logo</title><defs id="defs2820"><linearGradient x1="0" y1="0" x2="1" y2="0" id="linearGradient2840" gradientUnits="userSpaceOnUse" gradientTransform="matrix(0,134.75244,134.75244,0,150.74951,247.73047)" spreadMethod="pad"><stop id="stop2842" offset="0" style="stop-color:#ea5f29;stop-opacity:1"/><stop id="stop2844" offset="1" style="stop-color:#fabd1f;stop-opacity:1"/></linearGradient><linearGradient x1="0" y1="0" x2="1" y2="0" id="linearGradient2860" gradientUnits="userSpaceOnUse" gradientTransform="matrix(0,-134.75195,-134.75195,0,160.87451,372.12109)" spreadMethod="pad"><stop id="stop2862" offset="0" style="stop-color:#abd33c;stop-opacity:1"/><stop id="stop2864" offset="1" style="stop-color:#6cb02f;stop-opacity:1"/></linearGradient><clipPath id="clipPath2872"><path d="m0 595.28 841.89 0L841.89 0 0 0 0 595.28z" id="path2874"/></clipPath></defs><g transform="matrix(1.25,0,0,-1.25,-104.21625,496.50533)" id="g2826"><g transform="translate(3.4274813,7.3601302)" id="g2828"><g id="g2830"><g id="g2836"><g id="g2838"><path d="m135.38 382.48c-34.43 0-52-19.86-52-56.95l0 0 0-25.91 0-51.9 33.73 33.82 0 39.52c0 15.36 4.07 25.14 17.7 27.34l0 0c4.76 0.93 14.68 0.61 20.98 0.61l0 0 0-23.47c0-0.21 0.03-0.6 0.08-0.79l0 0c0.26-0.95 1.12-1.65 2.14-1.65l0 0c0.57 0 1.11 0.3 1.67 0.85l0 0 58.45 58.52-39.23 0.01-43.51 0z" id="path2846" fill="url(#linearGradient2840)"/></g></g></g></g><g transform="translate(3.4274813,7.3601302)" id="g2848"><g id="g2850"><g id="g2856"><g id="g2858"><path d="m194.52 338.31 0-39.52c0-15.36-4.07-25.14-17.7-27.34l0 0c-4.76-0.93-14.68-0.6-20.98-0.6l0 0 0 23.47c0 0.21-0.03 0.6-0.08 0.79l0 0c-0.26 0.95-1.12 1.65-2.14 1.65l0 0c-0.57 0-1.11-0.3-1.67-0.84l0 0-58.45-58.52 39.23-0.01 43.52 0c34.43 0 52 19.86 52 56.95l0 0 0 25.91 0 51.9-33.73-33.82z" id="path2866" fill="url(#linearGradient2860)"/></g></g></g></g><g transform="translate(3.4274813,7.3601302)" id="g2868"><g clip-path="url(#clipPath2872)" id="g2870"><g transform="translate(500.0391,266.1826)" id="g2876"/><g transform="translate(413.1797,243.7695)" id="g2880"/><g transform="translate(622.29,276.9707)" id="g2884"/><g transform="translate(364.2563,361.6123)" id="g2888"/><g transform="translate(756.458,336.3027)" id="g2892"/><g transform="translate(547.0293,276.9873)" id="g2896"><path d="m0 0c-0.07-11 0.55-15.53 2.46-21.15 1.48-4.11 3.62-7.57 6.62-10.4 5.58-5.64 13.32-8.06 25.4-8.14l14.35-0.09c0.59 0 1.91 0.07 2.44 0.23 1.85 0.55 3.31 1.98 3.89 3.81 0.17 0.55 0.27 1.86 0.28 2.47l0.06 9.32c0 0.58-0.07 1.9-0.23 2.43-0.54 1.85-1.98 3.31-3.8 3.89-0.55 0.17-1.86 0.28-2.47 0.28l-4.88 0.03c-6.04 0.04-10.56 1.79-12.9 5.26-1.93 2.82-2.33 6.05-2.27 16.84l0.19 31.61c0.01 0.61 0.11 1.92 0.28 2.47 0.59 1.83 2.05 3.26 3.89 3.81 0.54 0.16 1.85 0.24 2.43 0.23l-0.01 0.01 13.62-0.08c0.59 0 1.9 0.07 2.43 0.23 1.84 0.55 3.31 1.98 3.89 3.81 0.17 0.55 0.27 1.87 0.28 2.47l0.06 9.31c0 0.58-0.08 1.9-0.23 2.43-0.55 1.84-1.98 3.3-3.81 3.89-0.55 0.17-1.87 0.28-2.47 0.28l-13.63 0.09c-0.6 0-1.92 0.1-2.47 0.28-1.83 0.59-3.26 2.05-3.81 3.89-0.16 0.53-0.23 1.85-0.23 2.43l0.16 25.69c0 0.59-0.08 1.9-0.24 2.43-0.55 1.84-1.98 3.3-3.8 3.89-0.55 0.18-1.87 0.28-2.47 0.28L7.2 104.32C6.62 104.32 5.31 104.24 4.77 104.09 2.93 103.54 1.47 102.1 0.88 100.28 0.71 99.73 0.61 98.41 0.61 97.81L0 0zm209.43 59.32c0 0.61-0.1 1.92-0.27 2.47-0.59 1.83-2.05 3.26-3.89 3.81-0.53 0.16-1.85 0.24-2.43 0.23l-18.98-0.09c-12.07-0.08-19.82-2.49-25.39-8.14-3-2.83-5.14-6.28-6.62-10.4-1.9-5.61-2.52-10.15-2.46-21.14l-0.36-59.14c0-0.58 0.07-1.9 0.23-2.43 0.55-1.84 1.98-3.31 3.81-3.89 0.55-0.17 1.87-0.28 2.47-0.28l15.78-0.09c0.59-0.01 1.9 0.07 2.43 0.23 1.84 0.54 3.31 1.98 3.89 3.8 0.17 0.55 0.27 1.87 0.28 2.48l0.32 50.62 0.07 1.61c-0.06 10.79 0.34 14.02 2.27 16.84 2.34 3.46 8.02 4.06 14.06 4.1l8.35 0.03c0.6 0 1.92 0.11 2.47 0.28 1.83 0.59 3.26 2.05 3.81 3.89 0.16 0.53 0.24 1.85 0.24 2.43l-0.06 12.78zM-182.77 84.63c-0.02-0.67-0.11-1.68-0.25-2.15-0.57-1.83-2.03-3.27-3.86-3.83-0.53-0.16-1.85-0.25-2.43-0.25l-26.89 0c-6.68 0-15.74-0.65-21.35-1.72-12.29-1.94-18.54-10.14-18.54-23.72l0-1.2c0-0.59 0.09-8.47 0.25-9.01 0.56-1.84 2-3.29 3.83-3.86 0.55-0.17 1.87-0.26 2.48-0.26l60.23 0c0.61 0 1.93-0.09 2.47-0.26 1.83-0.58 3.28-2.03 3.83-3.87 0.16-0.53 0.25-1.85 0.25-2.43l0-12.33c0-0.6-0.09-1.92-0.26-2.47-0.57-1.83-2.03-3.28-3.86-3.83-0.53-0.16-1.85-0.25-2.44-0.25l-60.22 0c-0.59 0-1.9-0.09-2.43-0.25-1.84-0.55-3.29-2-3.87-3.83-0.17-0.55-0.26-1.86-0.26-2.47l0-39.83c0-0.6-0.09-1.92-0.27-2.47-0.57-1.83-2.03-3.27-3.86-3.83-0.53-0.16-1.84-0.25-2.43-0.25l-17.3 0 0.01-0.01c-0.09 0-0.21 0.01-0.31 0.01-0.67 0.02-1.69 0.1-2.16 0.25-1.83 0.57-3.27 2.03-3.83 3.86-0.16 0.53-0.25 1.84-0.25 2.43l0 68.49 0 8.19c0.87 25.88 4.53 36.44 15.96 47.01 7.12 6.47 16.39 10.57 28.89 12.29 6.7 1.08 8.85 1.29 21.57 1.29l30.79 0c0.6 0 1.92-0.09 2.47-0.26 1.83-0.57 3.27-2.03 3.83-3.87 0.15-0.49 0.23-1.63 0.24-2.27 0-0.05 0.01-0.12 0.01-0.17l0 0 0-12.56 0.01 0.01c0-0.09-0.01-0.21-0.01-0.32M75.26-0.02c-0.07-11 0.55-15.53 2.46-21.15 1.48-4.11 3.62-7.57 6.62-10.39 5.58-5.64 13.32-8.06 25.39-8.14l14.35-0.09c0.59 0 1.91 0.07 2.44 0.23 1.85 0.55 3.31 1.98 3.89 3.8 0.17 0.55 0.27 1.87 0.28 2.48l0.06 9.31c0 0.58-0.07 1.9-0.23 2.43-0.54 1.85-1.98 3.31-3.8 3.89-0.55 0.17-1.87 0.28-2.47 0.28l-4.88 0.03c-6.04 0.04-10.56 1.79-12.9 5.26-1.93 2.82-2.33 6.05-2.27 16.84l0.2 31.61c0.01 0.61 0.11 1.92 0.28 2.47 0.59 1.83 2.05 3.26 3.89 3.81 0.54 0.16 1.85 0.24 2.43 0.24l-0.01 0.01 13.62-0.08c0.59 0 1.9 0.08 2.43 0.23 1.84 0.55 3.3 1.98 3.89 3.8 0.17 0.55 0.27 1.87 0.28 2.47l0.06 9.31c0 0.58-0.08 1.9-0.23 2.43-0.55 1.84-1.98 3.31-3.81 3.89-0.55 0.17-1.87 0.28-2.47 0.28l-13.63 0.09c-0.6 0-1.92 0.1-2.47 0.28-1.83 0.59-3.26 2.05-3.81 3.89-0.15 0.53-0.23 1.85-0.23 2.43l0.16 25.69c0 0.59-0.08 1.9-0.24 2.43-0.55 1.84-1.98 3.3-3.8 3.89-0.55 0.18-1.87 0.28-2.47 0.28l-15.79 0.1c-0.59 0-1.9-0.07-2.43-0.23-1.84-0.55-3.3-1.98-3.89-3.81-0.18-0.55-0.28-1.87-0.28-2.47l-0.6-97.81zm-209.11-33.2c0-0.61-0.09-1.93-0.26-2.47-0.57-1.83-2.03-3.27-3.87-3.83-0.53-0.16-1.85-0.25-2.43-0.25l-15.79 0 0.01-0.01c-0.08 0-0.21 0.01-0.32 0.01-0.66 0.02-1.68 0.11-2.15 0.26-1.84 0.57-3.28 2.03-3.83 3.86-0.16 0.53-0.25 1.85-0.25 2.44l0 130.73c0 0.6 0.09 1.92 0.26 2.47 0.57 1.83 2.03 3.28 3.87 3.83 0.49 0.15 1.63 0.23 2.27 0.24l0.16 0 15.79 0c0.6 0 1.92-0.09 2.47-0.26 1.83-0.57 3.27-2.03 3.83-3.87 0.16-0.53 0.25-1.85 0.25-2.43l0-130.71zm86.86 22.41c0-0.6-0.09-1.92-0.26-2.47-0.58-1.83-2.03-3.27-3.87-3.83-0.53-0.16-1.85-0.24-2.43-0.24l-17.62 0c-11.43 0-15.52 2.37-15.52 9.27 0 6.04 4.1 9.71 10.79 9.71l4.74 0 17.64 0c0.6 0 1.92-0.09 2.47-0.26 1.83-0.58 3.27-2.03 3.83-3.87 0.16-0.53 0.25-1.85 0.25-2.43l0-5.86zm26.52 51.45c-1.51 4.96-4.09 9.27-7.11 12.94-6.89 7.76-15.52 11.22-29.54 11.43-3.02 0-6.89 0.22-11.86 0.22l-32.93 0c-0.58 0-1.9-0.09-2.43-0.25-1.84-0.56-3.29-2-3.87-3.83-0.17-0.55-0.26-1.87-0.26-2.48l0-9.31c0-0.58 0.09-1.9 0.25-2.43 0.56-1.84 2-3.29 3.83-3.87 0.55-0.17 1.87-0.26 2.47-0.26l32.94 0c14.35 0 20.31-3.07 21.67-12.25 0-0.62-0.09-1.89-0.26-2.43-0.57-1.83-2.02-3.27-3.86-3.83-0.53-0.16-1.84-0.25-2.43-0.25l-19.24 0c-16.6 0-25.01-1.73-30.62-5.82-7.76-5.61-12.51-15.96-12.51-26.96 0-14.22 8.41-26.3 20.28-29.32 5.82-1.51 10.13-1.73 26.3-1.73l45 0c0.59 0 1.9 0.09 2.44 0.25 1.84 0.56 3.29 2 3.87 3.83 0.17 0.55 0.26 1.87 0.26 2.47l0 52.53c0 11.43-0.42 15.09-2.37 21.35" id="path2898" style="fill-rule:nonzero;fill:#120b11"/></g></g></g></g></svg>