<svg xmlns="http://www.w3.org/2000/svg" width="512" height="512" viewBox="0 0 511.6 511.6"><path d="M260.5 219.3H388.4c2.7 0 4.9-0.9 6.6-2.6 1.7-1.7 2.6-3.9 2.6-6.6v-54.8c0-2.7-0.9-4.9-2.6-6.6 -1.7-1.7-3.9-2.6-6.6-2.6H260.5c-2.7 0-4.9 0.9-6.6 2.6 -1.7 1.7-2.6 3.9-2.6 6.6v54.8c0 2.7 0.9 4.9 2.6 6.6C255.6 218.4 257.8 219.3 260.5 219.3z" fill="#6dd3bd"/><path d="M260.5 73.1h73.1c2.7 0 4.9-0.9 6.6-2.6 1.7-1.7 2.6-3.9 2.6-6.6V9.1c0-2.7-0.8-4.9-2.6-6.6C338.4 0.9 336.3 0 333.6 0h-73.1c-2.7 0-4.9 0.9-6.6 2.6 -1.7 1.7-2.6 3.9-2.6 6.6v54.8c0 2.7 0.9 4.9 2.6 6.6C255.6 72.2 257.8 73.1 260.5 73.1z" fill="#6dd3bd"/><path d="M196.5 402h-54.8V9.1c0-2.7-0.9-4.9-2.6-6.6C137.4 0.9 135.3 0 132.6 0H77.8c-2.7 0-4.9 0.9-6.6 2.6 -1.7 1.7-2.6 3.9-2.6 6.6v392.9H13.8c-4.2 0-7 1.9-8.6 5.7 -1.5 3.6-0.9 7 2 10l91.4 91.4c2.1 1.7 4.3 2.6 6.6 2.6 2.5 0 4.7-0.9 6.6-2.6l91.1-91.1c1.9-2.3 2.9-4.6 2.9-6.8 0-2.7-0.9-4.9-2.6-6.6C201.4 402.8 199.2 402 196.5 402z" fill="#6dd3bd"/><path d="M504.6 441.1c-1.7-1.7-3.9-2.6-6.6-2.6H260.5c-2.7 0-4.9 0.9-6.6 2.6 -1.7 1.7-2.6 3.9-2.6 6.6v54.8c0 2.7 0.9 4.9 2.6 6.6 1.7 1.7 3.9 2.6 6.6 2.6h237.5c2.7 0 4.9-0.9 6.6-2.6 1.7-1.7 2.6-3.9 2.6-6.6v-54.8C507.2 445 506.3 442.8 504.6 441.1z" fill="#6dd3bd"/><path d="M260.5 365.4H443.2c2.7 0 4.9-0.9 6.6-2.6 1.7-1.7 2.6-3.9 2.6-6.6v-54.8c0-2.7-0.9-4.9-2.6-6.6 -1.7-1.7-3.9-2.6-6.6-2.6H260.5c-2.7 0-4.9 0.9-6.6 2.6 -1.7 1.7-2.6 3.9-2.6 6.6v54.8c0 2.7 0.9 4.9 2.6 6.6C255.6 364.6 257.8 365.4 260.5 365.4z" fill="#6dd3bd"/></svg>