<svg xmlns="http://www.w3.org/2000/svg" width="512" height="512" viewBox="0 0 571.5 571.5"><style>.a{fill:#FFF;}</style><circle cx="432.3" cy="404.3" r="7.1" class="a"/><circle cx="395.6" cy="404.3" r="7.1" class="a"/><circle cx="503.5" cy="248.9" r="7.1" class="a"/><path d="M212.8 165.9h145.8c3.7 0 6.8-3 6.8-6.8s-3-6.8-6.8-6.8H212.8c-3.7 0-6.8 3-6.8 6.8S209.1 165.9 212.8 165.9z" class="a"/><circle cx="532.2" cy="271.5" r="7.1" class="a"/><circle cx="474.8" cy="271.5" r="7.1" class="a"/><circle cx="503.5" cy="294" r="7.1" class="a"/><circle cx="525.7" cy="204.2" r="15.8" class="a"/><path d="M64.6 248.5v17.9H46.7c-0.4 0-0.8 0.3-0.8 0.8v8.7c0 0.4 0.3 0.8 0.8 0.8h17.9v17.9c0 0.4 0.3 0.8 0.8 0.8h8.7c0.4 0 0.8-0.3 0.8-0.8v-17.9h17.9c0.4 0 0.8-0.3 0.8-0.8v-8.7c0-0.4-0.3-0.8-0.8-0.8H74.8v-17.9c0-0.4-0.3-0.8-0.8-0.8h-8.7C64.9 247.7 64.6 248 64.6 248.5z" class="a"/><circle cx="45.2" cy="204.2" r="15.8" class="a"/><path d="M70.9 438.3h429.6c39.2 0 70.9-31.8 70.9-70.9V204.2c0-39.2-31.8-70.9-70.9-70.9H70.9C31.8 133.2 0 165 0 204.2v163.2C0 406.5 31.8 438.3 70.9 438.3zM395.6 417.6c-7.3 0-13.2-5.9-13.2-13.2 0-7.3 5.9-13.2 13.2-13.2 7.3 0 13.3 5.9 13.3 13.3C408.8 411.6 402.9 417.6 395.6 417.6zM432.3 417.6c-7.3 0-13.2-5.9-13.2-13.2 0-7.3 5.9-13.2 13.2-13.2 7.3 0 13.2 5.9 13.2 13.3C445.6 411.6 439.6 417.6 432.3 417.6zM532.2 284.7c-7.3 0-13.2-5.9-13.2-13.2s5.9-13.2 13.2-13.2c7.3 0 13.2 5.9 13.2 13.3S539.5 284.7 532.2 284.7zM525.7 182.3c12.1 0 21.9 9.8 21.9 21.9 0 12.1-9.8 21.9-21.9 21.9 -12.1 0-21.9-9.8-21.9-21.9C503.8 192.1 513.6 182.3 525.7 182.3zM503.5 235.7c7.3 0 13.3 5.9 13.3 13.3s-5.9 13.3-13.2 13.3c-7.3 0-13.2-5.9-13.2-13.2S496.2 235.7 503.5 235.7zM503.5 280.8c7.3 0 13.3 5.9 13.3 13.3s-5.9 13.3-13.2 13.3c-7.3 0-13.2-5.9-13.2-13.2S496.2 280.8 503.5 280.8zM474.8 258.2c7.3 0 13.2 5.9 13.2 13.3 0 7.3-5.9 13.3-13.2 13.3 -7.3 0-13.2-5.9-13.2-13.2C461.6 264.2 467.5 258.2 474.8 258.2zM212.8 146.3h145.8c7.1 0 12.9 5.8 12.9 12.9s-5.8 12.9-12.9 12.9H212.8c-7.1 0-12.9-5.8-12.9-12.9C200 152 205.7 146.3 212.8 146.3zM124.6 193.2h322.2v185.1H124.6V193.2zM74.1 241.6c3.8 0 6.9 3.1 6.9 6.9v11.8h11.8c3.8 0 6.9 3.1 6.9 6.9v8.7c0 3.8-3.1 6.9-6.9 6.9H81v11.8c0 3.8-3.1 6.9-6.9 6.9h-8.7c-3.8 0-6.9-3.1-6.9-6.9v-11.8H46.7c-3.8 0-6.9-3.1-6.9-6.9v-8.7c0-3.8 3.1-6.9 6.9-6.9h11.8v-11.8c0-3.8 3.1-6.9 6.9-6.9H74.1zM45.2 182.3c12.1 0 21.9 9.8 21.9 21.9 0 12.1-9.8 21.9-21.9 21.9 -12.1 0-21.9-9.8-21.9-21.9C23.3 192.1 33.1 182.3 45.2 182.3z" class="a"/><path d="M257.2 255.9c-5.3 0-10.5 0-15.8 0 -0.9 0-0.9 0-1.1 0.9 -0.8 2.9-1.5 5.8-2.2 8.7 -3.9 15.2-7.8 30.5-11.7 45.7 -0.1 0.6-0.2 1.2-0.6 2 -0.1-0.5-0.2-0.7-0.2-0.9 -3.5-13.3-7-26.7-10.5-40 -0.8-2.9-1.6-5.9-2.4-8.8 -0.6-2.1-1.6-4-3.3-5.5 -3.5-3.1-7.5-3.3-11.7-1.9 -2.9 0.9-4.6 3.2-5.9 5.9 -0.8 1.9-1.3 3.9-1.8 5.8 -3.9 14.7-7.8 29.4-11.6 44.2 -0.1 0.3-0.1 0.7-0.5 1.2 -0.1-0.4-0.3-0.7-0.3-1 -2.2-8.5-4.3-17-6.5-25.5 -2.5-9.9-5-19.8-7.6-29.6 -0.2-0.9-0.3-1-1.2-1 -5.2 0-10.4 0-15.6 0 -1.1 0-1.1 0-0.9 1.1 0 0.1 0.1 0.3 0.1 0.4 1.7 6 3.3 12 5 18 4 14.6 8.1 29.1 12.3 43.6 0.7 2.5 1.3 5 2.3 7.3 2.1 4.6 5.5 7.8 10.8 8.2 3.3 0.3 6.2-0.6 8.7-2.9 2.2-2 3.6-4.6 4.4-7.4 1.7-5.7 3.3-11.5 4.9-17.3 2.5-8.9 4.9-17.8 7.3-26.7 0.1-0.2 0-0.5 0.3-0.5 0.3 0.2 0.3 0.5 0.3 0.8 3.2 11.6 6.3 23.2 9.5 34.8 0.9 3.4 1.8 6.8 2.9 10 1 2.8 2.5 5.4 5 7.1 4.7 3.3 11.7 2.8 15.9-2.2 1.8-2.1 2.9-4.4 3.6-7 1.6-5.7 3.3-11.4 4.9-17.1 3.1-11.1 6.2-22.3 9.3-33.5 1.5-5.3 2.9-10.6 4.4-15.9C258.2 255.9 258.2 255.9 257.2 255.9z" class="a"/><path d="M421.6 258.5c-1.2-4-4.5-6.6-8.8-7 -3.2-0.2-6.5-0.1-9.7-0.1 -1.7 0-1.4-0.1-1.4 1.4 0 9.2 0 18.4 0 27.5 0 2.4-0.2 4.8-0.7 7.1 -1.8 7.4-6.3 12.1-13.7 14 -4.2 1-8.4 1.1-12.6 0.2 -7.8-1.7-12.6-6.4-14.5-14.1 -0.6-2.5-0.8-5-0.8-7.5 0-9 0-18 0-27 0-0.3 0-0.5 0-0.8 0-0.5-0.2-0.8-0.7-0.7 -3.5 0.1-6.9-0.1-10.4 0.1 -4.5 0.3-7.9 3.2-8.9 7.5 -0.3 1-0.4 2-0.4 3.1 0 12.2 0 24.3 0 36.5 0 1.5 0.2 3 0.5 4.5 1.2 5.2 4.2 8.6 9.4 10 1.8 0.5 3.7 0.7 5.6 0.7 8.7 0 17.4 0 26 0 8.7 0 17.4 0 26 0 1.7 0 3.4-0.1 5-0.5 5.2-1.2 8.6-4.4 9.9-9.6 0.5-1.9 0.7-3.8 0.7-5.7 0-8.7 0-17.4 0-26 0-3.2 0-6.4 0-9.6C422.1 261 421.9 259.7 421.6 258.5z" class="a"/><path d="M283 279.8c-5 0-10.1 0-15.1 0 -0.8 0-0.8 0-0.8 0.9 0 0.2 0 0.3 0 0.5 0 17.2 0 34.3 0 51.5 0 0.3 0 0.5 0 0.8 0 0.4 0.2 0.6 0.6 0.5 0.2 0 0.4 0 0.6 0 4.8 0 9.6 0 14.4 0 1.3 0 1.2 0.1 1.2-1.3 0-8.6 0-17.1 0-25.7 0-8.5 0-17.1 0-25.6 0-0.3 0-0.5 0-0.8C283.9 279.9 283.9 279.8 283 279.8z" class="a"/><path d="M316.8 279.8c-4.9 0-9.7 0-14.6 0 -1 0-1 0-1 1 0 0.1 0 0.2 0 0.3 0 17.2 0 34.3 0 51.5 0 0.2 0 0.3 0 0.5 0 0.9 0 0.9 0.9 0.9 5 0 10 0 15 0 0.9 0 0.9 0 0.9-0.9 0-0.3 0-0.5 0-0.8 0-8.4 0-16.9 0-25.3 0-0.3 0-0.5 0-0.8 0-8.4 0-16.8 0-25.2C318 279.8 317.9 279.8 316.8 279.8z" class="a"/><path d="M368.1 280.6c0.1 1.8 0.5 3.6 1.3 5.2 2 4.1 5.3 6.2 9.9 6.2 4.5 0 7.8-2.1 9.8-6.1 1-2 1.4-4.2 1.4-6.5 0-4.6 0-9.2 0-13.7l0 0c0-4.9 0-9.9 0-14.8 0-1 0-1-1-1.1 -1.2 0-2.3 0-3.5 0 -5.6 0-11.2 0-16.8 0 -1 0-1 0-1.1 1 0 0.2 0 0.5 0 0.7 0 8.6 0 17.1 0 25.7C368.1 278.3 368.1 279.5 368.1 280.6z" class="a"/><path d="M304.4 252.7c-5.4 3.2-6.3 9.7-2.7 14.1 2.8 3.4 7.9 4.6 12.1 2.6 3.5-1.7 5.4-4.5 5.6-8.4 0-2-0.6-3.9-1.8-5.5C314.7 251.4 308.7 250.2 304.4 252.7z" class="a"/><path d="M275.5 251.4c-1.6 0-3.2 0.3-4.7 1 -5.8 2.9-7.1 10.3-2.7 14.9 3.2 3.3 8.6 4 12.8 1.4 4.8-3 5.9-9.3 2.3-13.7C281.3 252.6 278.6 251.5 275.5 251.4z" class="a"/></svg>